# xmcd
#
# Track frame offsets:
#	150
#	13875
#	28205
#	45450
#	59806
#	79316
#	97741
#	115795
#	130993
#	156914
#
# Disc length: 2413 seconds
#
# Revision: 0
# Processed by: cddbd v1.4PL0 Copyright (c) Steve Scherf et al.
# Submitted via: audiograbber 1.82.02
#
DISCID=83096b0a
DTITLE=Vince Gill  - High Lonesome Sound
DYEAR=1996
DGENRE=Country
TTITLE0=One Dance With You
TTITLE1=High Lonesome Sound
TTITLE2=Pretty Little Adrianna
TTITLE3=A Little More Love
TTITLE4=Down To New Orleans
TTITLE5=Tell Me Lover
TTITLE6=Given More Time
TTITLE7=You And You Alone
TTITLE8=Worlds Apart
TTITLE9=Jenny Dreamed Of Trains
EXTD=
EXTT0=
EXTT1=
EXTT2=
EXTT3=
EXTT4=
EXTT5=
EXTT6=
EXTT7=
EXTT8=
EXTT9=
PLAYORDER=
